<?xml version="1.0" encoding="UTF-8" standalone="no"?><!DOCTYPE svg PUBLIC "-//W3C//DTD SVG 1.1//EN" "http://www.w3.org/Graphics/SVG/1.1/DTD/svg11.dtd"><!-- Generated by graphviz version 2.40.1 (20161225.0304)
 --><!-- Title: memory_dump_graph Pages: 1 --><svg xmlns="http://www.w3.org/2000/svg" xmlns:xlink="http://www.w3.org/1999/xlink" width="1791pt" height="1457pt" viewBox="0.00 0.00 1791.22 1456.55">
<g id="graph0" class="graph" transform="scale(1 1) rotate(0) translate(4 1452.5453)">
<title>memory_dump_graph</title>
<polygon fill="#000000" stroke="transparent" points="-4,4 -4,-1452.5453 1787.2212,-1452.5453 1787.2212,4 -4,4"/>
<!-- _600001378040 -->
<g id="node1" class="node">
<title>_600001378040</title>
<ellipse fill="#ffffff" stroke="#000000" cx="1203.3286" cy="-1395.3708" rx="175.9797" ry="53.3494"/>
<text text-anchor="middle" x="1203.3286" y="-1416.3708" font-family="Times,serif" font-size="14.00" fill="#000000">Instance of memorydumper2.EmptyClass</text>
<text text-anchor="middle" x="1203.3286" y="-1399.5708" font-family="Times,serif" font-size="14.00" fill="#000000"> 0x600001378040 (16 bytes)</text>
<text text-anchor="middle" x="1203.3286" y="-1382.7708" font-family="Times,serif" font-size="14.00" fill="#000000">9010020001000000</text>
<text text-anchor="middle" x="1203.3286" y="-1365.9708" font-family="Times,serif" font-size="14.00" fill="#000000">0300000000000000</text>
</g>
<!-- _100021090 -->
<g id="node2" class="node">
<title>_100021090</title>
<ellipse fill="#ffffff" stroke="#000000" cx="1203.3286" cy="-1164.9456" rx="175.4085" ry="124.4016"/>
<text text-anchor="middle" x="1203.3286" y="-1236.3456" font-family="Times,serif" font-size="14.00" fill="#000000">ObjC class memorydumper2.EmptyClass</text>
<text text-anchor="middle" x="1203.3286" y="-1219.5456" font-family="Times,serif" font-size="14.00" fill="#000000"> 0x100021090 (88 bytes)</text>
<text text-anchor="middle" x="1203.3286" y="-1202.7456" font-family="Times,serif" font-size="14.00" fill="#000000">5010020001000000</text>
<text text-anchor="middle" x="1203.3286" y="-1185.9456" font-family="Times,serif" font-size="14.00" fill="#000000">482df9df01000000</text>
<text text-anchor="middle" x="1203.3286" y="-1169.1456" font-family="Times,serif" font-size="14.00" fill="#000000">50b49a8901000000</text>
<text text-anchor="middle" x="1203.3286" y="-1152.3456" font-family="Times,serif" font-size="14.00" fill="#000000">0000000000001880</text>
<text text-anchor="middle" x="1203.3286" y="-1135.5456" font-family="Times,serif" font-size="14.00" fill="#000000">e2891b0100600080</text>
<text text-anchor="middle" x="1203.3286" y="-1118.7456" font-family="Times,serif" font-size="14.00" fill="#000000">0200000000000000</text>
<text text-anchor="middle" x="1203.3286" y="-1101.9456" font-family="Times,serif" font-size="14.00" fill="#000000">1000000007000000</text>
<text text-anchor="middle" x="1203.3286" y="-1085.1456" font-family="Times,serif" font-size="14.00" fill="#000000">7000000018000000...</text>
</g>
<!-- _600001378040&#45;&gt;_100021090 -->
<g id="edge1" class="edge">
<title>_600001378040-&gt;_100021090</title>
<path fill="none" stroke="#ffffff" d="M1203.3286,-1341.9275C1203.3286,-1329.073 1203.3286,-1314.762 1203.3286,-1300.003"/>
<polygon fill="#ffffff" stroke="#ffffff" points="1206.8287,-1299.726 1203.3286,-1289.726 1199.8287,-1299.7261 1206.8287,-1299.726"/>
<text text-anchor="middle" x="1213.2749" y="-1311.5964" font-family="Times,serif" font-size="14.00" fill="#ffffff">@0</text>
</g>
<!-- _10001a878 -->
<g id="node3" class="node">
<title>_10001a878</title>
<ellipse fill="#ffffff" stroke="#000000" cx="240.3286" cy="-875.1234" rx="240.1574" ry="112.6428"/>
<text text-anchor="middle" x="240.3286" y="-938.1234" font-family="Times,serif" font-size="14.00" fill="#000000">nominal type descriptor for memorydumper2.EmptyClass</text>
<text text-anchor="middle" x="240.3286" y="-921.3234" font-family="Times,serif" font-size="14.00" fill="#000000"> 0x10001a878 (52 bytes)</text>
<text text-anchor="middle" x="240.3286" y="-904.5234" font-family="Times,serif" font-size="14.00" fill="#000000">5000008094feffff</text>
<text text-anchor="middle" x="240.3286" y="-887.7234" font-family="Times,serif" font-size="14.00" fill="#000000">3dedffffa001ffff</text>
<text text-anchor="middle" x="240.3286" y="-870.9234" font-family="Times,serif" font-size="14.00" fill="#000000">a006000000000000</text>
<text text-anchor="middle" x="240.3286" y="-854.1234" font-family="Times,serif" font-size="14.00" fill="#000000">030000000b000000</text>
<text text-anchor="middle" x="240.3286" y="-837.3234" font-family="Times,serif" font-size="14.00" fill="#000000">0100000000000000</text>
<text text-anchor="middle" x="240.3286" y="-820.5234" font-family="Times,serif" font-size="14.00" fill="#000000">0a0000000a000000</text>
<text text-anchor="middle" x="240.3286" y="-803.7234" font-family="Times,serif" font-size="14.00" fill="#000000">01000000</text>
</g>
<!-- _100021090&#45;&gt;_10001a878 -->
<g id="edge8" class="edge">
<title>_100021090-&gt;_10001a878</title>
<path fill="none" stroke="#ffffff" d="M1034.0975,-1131.8352C888.0459,-1101.1481 672.4793,-1050.7737 490.3286,-987.6948 466.498,-979.4423 441.8233,-969.7839 417.6746,-959.6552"/>
<polygon fill="#ffffff" stroke="#ffffff" points="419.0214,-956.4247 408.448,-955.7521 416.2942,-962.8716 419.0214,-956.4247"/>
<text text-anchor="middle" x="598.7749" y="-1009.8948" font-family="Times,serif" font-size="14.00" fill="#ffffff">@64</text>
</g>
<!-- _10000aaa8 -->
<g id="node4" class="node">
<title>_10000aaa8</title>
<ellipse fill="#ffffff" stroke="#000000" cx="837.3286" cy="-875.1234" rx="338.1001" ry="112.6428"/>
<text text-anchor="middle" x="837.3286" y="-938.1234" font-family="Times,serif" font-size="14.00" fill="#000000">memorydumper2.EmptyClass.__allocating_init() -&gt; memorydumper2.EmptyClass</text>
<text text-anchor="middle" x="837.3286" y="-921.3234" font-family="Times,serif" font-size="14.00" fill="#000000"> 0x10000aaa8 (56 bytes)</text>
<text text-anchor="middle" x="837.3286" y="-904.5234" font-family="Times,serif" font-size="14.00" fill="#000000">f44fbea9fd7b01a9</text>
<text text-anchor="middle" x="837.3286" y="-887.7234" font-family="Times,serif" font-size="14.00" fill="#000000">fd430091e00314aa</text>
<text text-anchor="middle" x="837.3286" y="-870.9234" font-family="Times,serif" font-size="14.00" fill="#000000">08028052e10308aa</text>
<text text-anchor="middle" x="837.3286" y="-854.1234" font-family="Times,serif" font-size="14.00" fill="#000000">e8008052e20308aa</text>
<text text-anchor="middle" x="837.3286" y="-837.3234" font-family="Times,serif" font-size="14.00" fill="#000000">91360094f40300aa</text>
<text text-anchor="middle" x="837.3286" y="-820.5234" font-family="Times,serif" font-size="14.00" fill="#000000">0d000094fd7b41a9</text>
<text text-anchor="middle" x="837.3286" y="-803.7234" font-family="Times,serif" font-size="14.00" fill="#000000">f44fc2a8c0035fd6</text>
</g>
<!-- _100021090&#45;&gt;_10000aaa8 -->
<g id="edge9" class="edge">
<title>_100021090-&gt;_10000aaa8</title>
<path fill="none" stroke="#ffffff" d="M1086.0137,-1072.0482C1051.2184,-1044.495 1012.7701,-1014.0492 976.7194,-985.502"/>
<polygon fill="#ffffff" stroke="#ffffff" points="978.5961,-982.5236 968.5836,-979.0595 974.2505,-988.0114 978.5961,-982.5236"/>
<text text-anchor="middle" x="1033.7749" y="-1009.8948" font-family="Times,serif" font-size="14.00" fill="#ffffff">@80</text>
</g>
<!-- _1dff92d48 -->
<g id="node6" class="node">
<title>_1dff92d48</title>
<ellipse fill="#ffffff" stroke="#000000" cx="1483.3286" cy="-390.5142" rx="133.8174" ry="88.6256"/>
<text text-anchor="middle" x="1483.3286" y="-436.7142" font-family="Times,serif" font-size="14.00" fill="#000000">ObjC class Swift._SwiftObject</text>
<text text-anchor="middle" x="1483.3286" y="-419.9142" font-family="Times,serif" font-size="14.00" fill="#000000"> 0x1dff92d48 (40 bytes)</text>
<text text-anchor="middle" x="1483.3286" y="-403.1142" font-family="Times,serif" font-size="14.00" fill="#000000">712df9df01000001</text>
<text text-anchor="middle" x="1483.3286" y="-386.3142" font-family="Times,serif" font-size="14.00" fill="#000000">0000000000000000</text>
<text text-anchor="middle" x="1483.3286" y="-369.5142" font-family="Times,serif" font-size="14.00" fill="#000000">50b49a8901000000</text>
<text text-anchor="middle" x="1483.3286" y="-352.7142" font-family="Times,serif" font-size="14.00" fill="#000000">0000000000001880</text>
<text text-anchor="middle" x="1483.3286" y="-335.9142" font-family="Times,serif" font-size="14.00" fill="#000000">000e140100600080</text>
</g>
<!-- _100021090&#45;&gt;_1dff92d48 -->
<g id="edge6" class="edge">
<title>_100021090-&gt;_1dff92d48</title>
<path fill="none" stroke="#ffffff" d="M1370.4245,-1126.3637C1453.081,-1099.68 1548.7162,-1056.2711 1613.3286,-987.6948 1755.5488,-836.7497 1815.6484,-713.0835 1714.3286,-532.1268 1691.2055,-490.829 1650.5745,-460.1183 1609.7702,-438.0521"/>
<polygon fill="#ffffff" stroke="#ffffff" points="1611.2724,-434.8877 1600.7922,-433.3336 1608.0158,-441.084 1611.2724,-434.8877"/>
<text text-anchor="middle" x="1773.2749" y="-731.952" font-family="Times,serif" font-size="14.00" fill="#ffffff">@8</text>
</g>
<!-- _1899ab450 -->
<g id="node7" class="node">
<title>_1899ab450</title>
<ellipse fill="#ffffff" stroke="#000000" cx="1281.3286" cy="-124.4508" rx="114.9308" ry="124.4016"/>
<text text-anchor="middle" x="1281.3286" y="-195.8508" font-family="Times,serif" font-size="14.00" fill="#000000">_objc_empty_cache</text>
<text text-anchor="middle" x="1281.3286" y="-179.0508" font-family="Times,serif" font-size="14.00" fill="#000000"> 0x1899ab450 (128 bytes)</text>
<text text-anchor="middle" x="1281.3286" y="-162.2508" font-family="Times,serif" font-size="14.00" fill="#000000">0000000000000000</text>
<text text-anchor="middle" x="1281.3286" y="-145.4508" font-family="Times,serif" font-size="14.00" fill="#000000">0000000000000000</text>
<text text-anchor="middle" x="1281.3286" y="-128.6508" font-family="Times,serif" font-size="14.00" fill="#000000">0000000000000000</text>
<text text-anchor="middle" x="1281.3286" y="-111.8508" font-family="Times,serif" font-size="14.00" fill="#000000">0000000000000000</text>
<text text-anchor="middle" x="1281.3286" y="-95.0508" font-family="Times,serif" font-size="14.00" fill="#000000">0000000000000000</text>
<text text-anchor="middle" x="1281.3286" y="-78.2508" font-family="Times,serif" font-size="14.00" fill="#000000">0000000000000000</text>
<text text-anchor="middle" x="1281.3286" y="-61.4508" font-family="Times,serif" font-size="14.00" fill="#000000">0000000000000000</text>
<text text-anchor="middle" x="1281.3286" y="-44.6508" font-family="Times,serif" font-size="14.00" fill="#000000">0000000000000000...</text>
</g>
<!-- _100021090&#45;&gt;_1899ab450 -->
<g id="edge7" class="edge">
<title>_100021090-&gt;_1899ab450</title>
<path fill="none" stroke="#ffffff" d="M1203.3286,-1040.4786C1203.3286,-989.26 1203.3286,-929.3393 1203.3286,-875.1234 1203.3286,-875.1234 1203.3286,-875.1234 1203.3286,-390.5142 1203.3286,-342.5299 1215.1557,-291.5724 1229.5991,-247.2329"/>
<polygon fill="#ffffff" stroke="#ffffff" points="1232.9737,-248.177 1232.8171,-237.5834 1226.3332,-245.9625 1232.9737,-248.177"/>
<text text-anchor="middle" x="1216.7749" y="-616.7394" font-family="Times,serif" font-size="14.00" fill="#ffffff">@16</text>
</g>
<!-- _100021050 -->
<g id="node8" class="node">
<title>_100021050</title>
<ellipse fill="#ffffff" stroke="#000000" cx="1419.3286" cy="-875.1234" rx="184.5733" ry="88.6256"/>
<text text-anchor="middle" x="1419.3286" y="-921.3234" font-family="Times,serif" font-size="14.00" fill="#000000">metaclass for memorydumper2.EmptyClass</text>
<text text-anchor="middle" x="1419.3286" y="-904.5234" font-family="Times,serif" font-size="14.00" fill="#000000"> 0x100021050 (40 bytes)</text>
<text text-anchor="middle" x="1419.3286" y="-887.7234" font-family="Times,serif" font-size="14.00" fill="#000000">702df9df01000000</text>
<text text-anchor="middle" x="1419.3286" y="-870.9234" font-family="Times,serif" font-size="14.00" fill="#000000">702df9df01000000</text>
<text text-anchor="middle" x="1419.3286" y="-854.1234" font-family="Times,serif" font-size="14.00" fill="#000000">50b49a8901000000</text>
<text text-anchor="middle" x="1419.3286" y="-837.3234" font-family="Times,serif" font-size="14.00" fill="#000000">00000000000034a0</text>
<text text-anchor="middle" x="1419.3286" y="-820.5234" font-family="Times,serif" font-size="14.00" fill="#000000">008a1b0100600080</text>
</g>
<!-- _100021090&#45;&gt;_100021050 -->
<g id="edge5" class="edge">
<title>_100021090-&gt;_100021050</title>
<path fill="none" stroke="#ffffff" d="M1285.6051,-1054.5495C1307.0902,-1025.7215 1330.0173,-994.9586 1350.7097,-967.1942"/>
<polygon fill="#ffffff" stroke="#ffffff" points="1353.5992,-969.1742 1356.7686,-959.0645 1347.9865,-964.9911 1353.5992,-969.1742"/>
<text text-anchor="middle" x="1328.2749" y="-1009.8948" font-family="Times,serif" font-size="14.00" fill="#ffffff">@0</text>
</g>
<!-- _1dff92d70 -->
<g id="node5" class="node">
<title>_1dff92d70</title>
<ellipse fill="#ffffff" stroke="#000000" cx="1477.3286" cy="-620.9394" rx="190.7258" ry="88.6256"/>
<text text-anchor="middle" x="1477.3286" y="-667.1394" font-family="Times,serif" font-size="14.00" fill="#000000">OBJC_METACLASS_$_Swift._SwiftObject</text>
<text text-anchor="middle" x="1477.3286" y="-650.3394" font-family="Times,serif" font-size="14.00" fill="#000000"> 0x1dff92d70 (40 bytes)</text>
<text text-anchor="middle" x="1477.3286" y="-633.5394" font-family="Times,serif" font-size="14.00" fill="#000000">702df9df01000000</text>
<text text-anchor="middle" x="1477.3286" y="-616.7394" font-family="Times,serif" font-size="14.00" fill="#000000">482df9df01000000</text>
<text text-anchor="middle" x="1477.3286" y="-599.9394" font-family="Times,serif" font-size="14.00" fill="#000000">50b49a8901000000</text>
<text text-anchor="middle" x="1477.3286" y="-583.1394" font-family="Times,serif" font-size="14.00" fill="#000000">00000000000034a0</text>
<text text-anchor="middle" x="1477.3286" y="-566.3394" font-family="Times,serif" font-size="14.00" fill="#000000">e00d140100600080</text>
</g>
<!-- _1dff92d70&#45;&gt;_1dff92d70 -->
<g id="edge2" class="edge">
<title>_1dff92d70-&gt;_1dff92d70</title>
<path fill="none" stroke="#ffffff" d="M1665.2996,-636.458C1678.2856,-632.9033 1686.1915,-627.7304 1686.1915,-620.9394 1686.1915,-616.0584 1682.1073,-612.0133 1674.9881,-608.8041"/>
<polygon fill="#ffffff" stroke="#ffffff" points="1675.8944,-605.4134 1665.2996,-605.4209 1673.5866,-612.0221 1675.8944,-605.4134"/>
<text text-anchor="middle" x="1696.1378" y="-616.7394" font-family="Times,serif" font-size="14.00" fill="#ffffff">@0</text>
</g>
<!-- _1dff92d70&#45;&gt;_1dff92d48 -->
<g id="edge3" class="edge">
<title>_1dff92d70-&gt;_1dff92d48</title>
<path fill="none" stroke="#ffffff" d="M1479.6484,-531.851C1480.0093,-517.9914 1480.384,-503.5994 1480.7502,-489.5358"/>
<polygon fill="#ffffff" stroke="#ffffff" points="1484.2535,-489.4534 1481.015,-479.3657 1477.2558,-489.2712 1484.2535,-489.4534"/>
<text text-anchor="middle" x="1491.2749" y="-501.5268" font-family="Times,serif" font-size="14.00" fill="#ffffff">@8</text>
</g>
<!-- _1dff92d70&#45;&gt;_1899ab450 -->
<g id="edge4" class="edge">
<title>_1dff92d70-&gt;_1899ab450</title>
<path fill="none" stroke="#ffffff" d="M1368.3912,-547.8372C1346.7534,-528.162 1326.658,-505.0867 1313.436,-479.3268 1294.129,-441.7117 1286.2861,-343.0871 1283.1692,-259.3306"/>
<polygon fill="#ffffff" stroke="#ffffff" points="1286.6622,-259.0658 1282.8121,-249.1952 1279.6665,-259.3123 1286.6622,-259.0658"/>
<text text-anchor="middle" x="1327.7749" y="-386.3142" font-family="Times,serif" font-size="14.00" fill="#ffffff">@16</text>
</g>
<!-- _1dff92d48&#45;&gt;_1899ab450 -->
<g id="edge10" class="edge">
<title>_1dff92d48-&gt;_1899ab450</title>
<path fill="none" stroke="#ffffff" d="M1422.9956,-311.0468C1403.4207,-285.2638 1381.3992,-256.2583 1360.6574,-228.9383"/>
<polygon fill="#ffffff" stroke="#ffffff" points="1363.3905,-226.75 1354.5559,-220.9018 1357.8152,-230.9829 1363.3905,-226.75"/>
<text text-anchor="middle" x="1414.7749" y="-271.1016" font-family="Times,serif" font-size="14.00" fill="#ffffff">@16</text>
</g>
<!-- _100021050&#45;&gt;_1dff92d70 -->
<g id="edge11" class="edge">
<title>_100021050-&gt;_1dff92d70</title>
<path fill="none" stroke="#ffffff" d="M1417.9355,-786.228C1419.1994,-766.7464 1421.7498,-746.383 1426.436,-727.752 1427.3411,-724.1539 1428.3718,-720.5317 1429.5059,-716.9068"/>
<polygon fill="#ffffff" stroke="#ffffff" points="1432.8597,-717.9141 1432.7341,-707.32 1426.2258,-715.6801 1432.8597,-717.9141"/>
<text text-anchor="middle" x="1437.2749" y="-731.952" font-family="Times,serif" font-size="14.00" fill="#ffffff">@0</text>
</g>
<!-- _100021050&#45;&gt;_1dff92d70 -->
<g id="edge12" class="edge">
<title>_100021050-&gt;_1dff92d70</title>
<path fill="none" stroke="#ffffff" d="M1439.5328,-786.579C1444.4658,-764.96 1449.7739,-741.6974 1454.8076,-719.6375"/>
<polygon fill="#ffffff" stroke="#ffffff" points="1458.2863,-720.1248 1457.0987,-709.5967 1451.4617,-718.5675 1458.2863,-720.1248"/>
<text text-anchor="middle" x="1462.2749" y="-731.952" font-family="Times,serif" font-size="14.00" fill="#ffffff">@8</text>
</g>
<!-- _100021050&#45;&gt;_1899ab450 -->
<g id="edge13" class="edge">
<title>_100021050-&gt;_1899ab450</title>
<path fill="none" stroke="#ffffff" d="M1332.1911,-796.5614C1309.9881,-771.2776 1289.0933,-741.512 1277.3286,-709.752 1222.4824,-561.6892 1235.6887,-377.7374 1254.5426,-256.0095"/>
<polygon fill="#ffffff" stroke="#ffffff" points="1258.0374,-256.3174 1256.1447,-245.893 1251.1236,-255.2225 1258.0374,-256.3174"/>
<text text-anchor="middle" x="1253.7749" y="-501.5268" font-family="Times,serif" font-size="14.00" fill="#ffffff">@16</text>
</g>
</g>
</svg>